<mxfile host="app.diagrams.net" modified="2020-04-15T16:07:24.121Z" agent="Mozilla/5.0 (Windows NT 6.1) AppleWebKit/537.36 (KHTML, like Gecko) Chrome/80.0.3987.132 Safari/537.36" etag="xTcacmgtJf02Cy6X9cWA" version="12.8.8" type="github" pages="4">
  <diagram id="C5RBs43oDa-KdzZeNtuy" name="V1">
    <mxGraphModel dx="2187" dy="1949" grid="1" gridSize="10" guides="1" tooltips="1" connect="1" arrows="1" fold="1" page="1" pageScale="1" pageWidth="827" pageHeight="1169" math="0" shadow="0">
      <root>
        <mxCell id="WIyWlLk6GJQsqaUBKTNV-0" />
        <mxCell id="WIyWlLk6GJQsqaUBKTNV-1" parent="WIyWlLk6GJQsqaUBKTNV-0" />
        <mxCell id="WIyWlLk6GJQsqaUBKTNV-2" value="" style="rounded=0;html=1;jettySize=auto;orthogonalLoop=1;fontSize=11;endArrow=block;endFill=0;endSize=8;strokeWidth=1;shadow=0;labelBackgroundColor=none;edgeStyle=orthogonalEdgeStyle;entryX=0.5;entryY=0;entryDx=0;entryDy=0;" parent="WIyWlLk6GJQsqaUBKTNV-1" target="6k4LD1PUbO5Gw9Kn8AXm-22" edge="1">
          <mxGeometry relative="1" as="geometry">
            <mxPoint x="234.5" y="-21" as="sourcePoint" />
            <mxPoint x="234.5" y="38" as="targetPoint" />
          </mxGeometry>
        </mxCell>
        <mxCell id="WIyWlLk6GJQsqaUBKTNV-4" value="Yes" style="rounded=0;html=1;jettySize=auto;orthogonalLoop=1;fontSize=11;endArrow=block;endFill=0;endSize=8;strokeWidth=1;shadow=0;labelBackgroundColor=none;edgeStyle=orthogonalEdgeStyle;entryX=0.5;entryY=0;entryDx=0;entryDy=0;" parent="WIyWlLk6GJQsqaUBKTNV-1" target="6k4LD1PUbO5Gw9Kn8AXm-13" edge="1">
          <mxGeometry y="20" relative="1" as="geometry">
            <mxPoint as="offset" />
            <mxPoint x="235" y="165" as="sourcePoint" />
          </mxGeometry>
        </mxCell>
        <mxCell id="WIyWlLk6GJQsqaUBKTNV-5" value="No" style="edgeStyle=orthogonalEdgeStyle;rounded=0;html=1;jettySize=auto;orthogonalLoop=1;fontSize=11;endArrow=block;endFill=0;endSize=8;strokeWidth=1;shadow=0;labelBackgroundColor=none;" parent="WIyWlLk6GJQsqaUBKTNV-1" source="WIyWlLk6GJQsqaUBKTNV-6" target="WIyWlLk6GJQsqaUBKTNV-7" edge="1">
          <mxGeometry y="10" relative="1" as="geometry">
            <mxPoint as="offset" />
          </mxGeometry>
        </mxCell>
        <mxCell id="WIyWlLk6GJQsqaUBKTNV-6" value="Exists In Cache?" style="rhombus;whiteSpace=wrap;html=1;shadow=0;fontFamily=Helvetica;fontSize=12;align=center;strokeWidth=1;spacing=6;spacingTop=-4;" parent="WIyWlLk6GJQsqaUBKTNV-1" vertex="1">
          <mxGeometry x="180" y="100" width="110" height="75" as="geometry" />
        </mxCell>
        <mxCell id="6k4LD1PUbO5Gw9Kn8AXm-11" style="edgeStyle=orthogonalEdgeStyle;rounded=0;orthogonalLoop=1;jettySize=auto;html=1;entryX=0.5;entryY=1;entryDx=0;entryDy=0;" parent="WIyWlLk6GJQsqaUBKTNV-1" source="WIyWlLk6GJQsqaUBKTNV-7" edge="1">
          <mxGeometry relative="1" as="geometry">
            <mxPoint x="565" y="120" as="targetPoint" />
          </mxGeometry>
        </mxCell>
        <mxCell id="WIyWlLk6GJQsqaUBKTNV-7" value="Generate Tags" style="rounded=1;whiteSpace=wrap;html=1;fontSize=12;glass=0;strokeWidth=1;shadow=0;" parent="WIyWlLk6GJQsqaUBKTNV-1" vertex="1">
          <mxGeometry x="370" y="117.5" width="120" height="40" as="geometry" />
        </mxCell>
        <mxCell id="WIyWlLk6GJQsqaUBKTNV-8" value="No" style="rounded=0;html=1;jettySize=auto;orthogonalLoop=1;fontSize=11;endArrow=block;endFill=0;endSize=8;strokeWidth=1;shadow=0;labelBackgroundColor=none;edgeStyle=orthogonalEdgeStyle;entryX=1;entryY=0.5;entryDx=0;entryDy=0;" parent="WIyWlLk6GJQsqaUBKTNV-1" source="WIyWlLk6GJQsqaUBKTNV-10" target="6k4LD1PUbO5Gw9Kn8AXm-16" edge="1">
          <mxGeometry x="0.3333" y="20" relative="1" as="geometry">
            <mxPoint as="offset" />
            <mxPoint x="80" y="425" as="targetPoint" />
          </mxGeometry>
        </mxCell>
        <mxCell id="WIyWlLk6GJQsqaUBKTNV-9" value="Yes" style="edgeStyle=orthogonalEdgeStyle;rounded=0;html=1;jettySize=auto;orthogonalLoop=1;fontSize=11;endArrow=block;endFill=0;endSize=8;strokeWidth=1;shadow=0;labelBackgroundColor=none;" parent="WIyWlLk6GJQsqaUBKTNV-1" target="WIyWlLk6GJQsqaUBKTNV-12" edge="1">
          <mxGeometry y="10" relative="1" as="geometry">
            <mxPoint as="offset" />
            <mxPoint x="235" y="356" as="sourcePoint" />
          </mxGeometry>
        </mxCell>
        <mxCell id="WIyWlLk6GJQsqaUBKTNV-10" value="Event Trigger?" style="rhombus;whiteSpace=wrap;html=1;shadow=0;fontFamily=Helvetica;fontSize=12;align=center;strokeWidth=1;spacing=6;spacingTop=-4;" parent="WIyWlLk6GJQsqaUBKTNV-1" vertex="1">
          <mxGeometry x="185" y="290" width="100" height="80" as="geometry" />
        </mxCell>
        <mxCell id="6k4LD1PUbO5Gw9Kn8AXm-18" style="edgeStyle=orthogonalEdgeStyle;rounded=0;orthogonalLoop=1;jettySize=auto;html=1;entryX=0.5;entryY=0;entryDx=0;entryDy=0;" parent="WIyWlLk6GJQsqaUBKTNV-1" source="WIyWlLk6GJQsqaUBKTNV-12" target="6k4LD1PUbO5Gw9Kn8AXm-17" edge="1">
          <mxGeometry relative="1" as="geometry" />
        </mxCell>
        <mxCell id="WIyWlLk6GJQsqaUBKTNV-12" value="Push Information" style="rounded=1;whiteSpace=wrap;html=1;fontSize=12;glass=0;strokeWidth=1;shadow=0;" parent="WIyWlLk6GJQsqaUBKTNV-1" vertex="1">
          <mxGeometry x="175" y="396" width="120" height="40" as="geometry" />
        </mxCell>
        <mxCell id="6k4LD1PUbO5Gw9Kn8AXm-4" style="edgeStyle=orthogonalEdgeStyle;rounded=0;orthogonalLoop=1;jettySize=auto;html=1;entryX=1;entryY=0.25;entryDx=0;entryDy=0;exitX=0;exitY=0.25;exitDx=0;exitDy=0;" parent="WIyWlLk6GJQsqaUBKTNV-1" source="6k4LD1PUbO5Gw9Kn8AXm-22" target="6k4LD1PUbO5Gw9Kn8AXm-5" edge="1">
          <mxGeometry relative="1" as="geometry">
            <mxPoint x="280" y="73" as="sourcePoint" />
            <mxPoint x="414" y="88" as="targetPoint" />
          </mxGeometry>
        </mxCell>
        <mxCell id="6k4LD1PUbO5Gw9Kn8AXm-30" style="edgeStyle=orthogonalEdgeStyle;rounded=0;orthogonalLoop=1;jettySize=auto;html=1;entryX=0;entryY=0.75;entryDx=0;entryDy=0;exitX=1;exitY=0.75;exitDx=0;exitDy=0;" parent="WIyWlLk6GJQsqaUBKTNV-1" source="6k4LD1PUbO5Gw9Kn8AXm-5" target="6k4LD1PUbO5Gw9Kn8AXm-22" edge="1">
          <mxGeometry relative="1" as="geometry" />
        </mxCell>
        <mxCell id="6k4LD1PUbO5Gw9Kn8AXm-5" value="IV3" style="label;whiteSpace=wrap;html=1;image=img/clipart/Gear_128x128.png" parent="WIyWlLk6GJQsqaUBKTNV-1" vertex="1">
          <mxGeometry x="-90" y="18" width="126" height="65" as="geometry" />
        </mxCell>
        <mxCell id="6k4LD1PUbO5Gw9Kn8AXm-7" value="Startup" style="ellipse;whiteSpace=wrap;html=1;aspect=fixed;" parent="WIyWlLk6GJQsqaUBKTNV-1" vertex="1">
          <mxGeometry x="210" y="-150" width="50" height="50" as="geometry" />
        </mxCell>
        <mxCell id="6k4LD1PUbO5Gw9Kn8AXm-37" style="edgeStyle=orthogonalEdgeStyle;rounded=0;orthogonalLoop=1;jettySize=auto;html=1;entryX=1;entryY=0.75;entryDx=0;entryDy=0;exitX=0.5;exitY=0;exitDx=0;exitDy=0;" parent="WIyWlLk6GJQsqaUBKTNV-1" source="6k4LD1PUbO5Gw9Kn8AXm-10" target="6k4LD1PUbO5Gw9Kn8AXm-31" edge="1">
          <mxGeometry relative="1" as="geometry" />
        </mxCell>
        <mxCell id="6k4LD1PUbO5Gw9Kn8AXm-10" value="DB" style="shape=cylinder;whiteSpace=wrap;html=1;boundedLbl=1;backgroundOutline=1;" parent="WIyWlLk6GJQsqaUBKTNV-1" vertex="1">
          <mxGeometry x="520" y="18" width="90" height="120" as="geometry" />
        </mxCell>
        <mxCell id="6k4LD1PUbO5Gw9Kn8AXm-13" value="Check Events&lt;br&gt;(xx Kick off/Sc/Ht/Ft/Et/Finish)" style="rounded=1;whiteSpace=wrap;html=1;" parent="WIyWlLk6GJQsqaUBKTNV-1" vertex="1">
          <mxGeometry x="175" y="200" width="120" height="60" as="geometry" />
        </mxCell>
        <mxCell id="6k4LD1PUbO5Gw9Kn8AXm-15" value="Yes" style="edgeStyle=orthogonalEdgeStyle;rounded=0;html=1;jettySize=auto;orthogonalLoop=1;fontSize=11;endArrow=block;endFill=0;endSize=8;strokeWidth=1;shadow=0;labelBackgroundColor=none;exitX=0.5;exitY=1;exitDx=0;exitDy=0;entryX=0.5;entryY=0;entryDx=0;entryDy=0;" parent="WIyWlLk6GJQsqaUBKTNV-1" source="6k4LD1PUbO5Gw9Kn8AXm-13" target="WIyWlLk6GJQsqaUBKTNV-10" edge="1">
          <mxGeometry y="10" relative="1" as="geometry">
            <mxPoint as="offset" />
            <mxPoint x="280" y="425" as="sourcePoint" />
            <mxPoint x="220" y="395" as="targetPoint" />
          </mxGeometry>
        </mxCell>
        <mxCell id="6k4LD1PUbO5Gw9Kn8AXm-16" value="" style="ellipse;whiteSpace=wrap;html=1;aspect=fixed;" parent="WIyWlLk6GJQsqaUBKTNV-1" vertex="1">
          <mxGeometry x="50" y="312.5" width="35" height="35" as="geometry" />
        </mxCell>
        <mxCell id="6k4LD1PUbO5Gw9Kn8AXm-17" value="CAP.NFN" style="label;whiteSpace=wrap;html=1;image=img/clipart/Gear_128x128.png" parent="WIyWlLk6GJQsqaUBKTNV-1" vertex="1">
          <mxGeometry x="-10" y="436" width="120" height="60" as="geometry" />
        </mxCell>
        <mxCell id="6k4LD1PUbO5Gw9Kn8AXm-22" value="Get Match Data" style="rounded=1;whiteSpace=wrap;html=1;" parent="WIyWlLk6GJQsqaUBKTNV-1" vertex="1">
          <mxGeometry x="175" y="18" width="120" height="60" as="geometry" />
        </mxCell>
        <mxCell id="6k4LD1PUbO5Gw9Kn8AXm-29" value="" style="rounded=0;html=1;jettySize=auto;orthogonalLoop=1;fontSize=11;endArrow=block;endFill=0;endSize=8;strokeWidth=1;shadow=0;labelBackgroundColor=none;edgeStyle=orthogonalEdgeStyle;entryX=0.5;entryY=0;entryDx=0;entryDy=0;" parent="WIyWlLk6GJQsqaUBKTNV-1" target="6k4LD1PUbO5Gw9Kn8AXm-31" edge="1">
          <mxGeometry relative="1" as="geometry">
            <mxPoint x="234.5" y="-100" as="sourcePoint" />
            <mxPoint x="234.5" y="-41" as="targetPoint" />
          </mxGeometry>
        </mxCell>
        <mxCell id="6k4LD1PUbO5Gw9Kn8AXm-34" style="edgeStyle=orthogonalEdgeStyle;rounded=0;orthogonalLoop=1;jettySize=auto;html=1;entryX=0.85;entryY=0.05;entryDx=0;entryDy=0;entryPerimeter=0;" parent="WIyWlLk6GJQsqaUBKTNV-1" source="6k4LD1PUbO5Gw9Kn8AXm-31" target="6k4LD1PUbO5Gw9Kn8AXm-10" edge="1">
          <mxGeometry relative="1" as="geometry">
            <mxPoint x="591" y="49" as="targetPoint" />
          </mxGeometry>
        </mxCell>
        <mxCell id="6k4LD1PUbO5Gw9Kn8AXm-31" value="Load Match Cache" style="rounded=1;whiteSpace=wrap;html=1;" parent="WIyWlLk6GJQsqaUBKTNV-1" vertex="1">
          <mxGeometry x="175" y="-71" width="120" height="60" as="geometry" />
        </mxCell>
        <mxCell id="6k4LD1PUbO5Gw9Kn8AXm-36" value="" style="rounded=0;html=1;jettySize=auto;orthogonalLoop=1;fontSize=11;endArrow=block;endFill=0;endSize=8;strokeWidth=1;shadow=0;labelBackgroundColor=none;edgeStyle=orthogonalEdgeStyle;exitX=0.5;exitY=1;exitDx=0;exitDy=0;entryX=0.5;entryY=0;entryDx=0;entryDy=0;" parent="WIyWlLk6GJQsqaUBKTNV-1" source="6k4LD1PUbO5Gw9Kn8AXm-22" target="WIyWlLk6GJQsqaUBKTNV-6" edge="1">
          <mxGeometry relative="1" as="geometry">
            <mxPoint x="244.5" y="-32" as="sourcePoint" />
            <mxPoint x="244.5" y="27" as="targetPoint" />
          </mxGeometry>
        </mxCell>
        <mxCell id="6k4LD1PUbO5Gw9Kn8AXm-40" style="edgeStyle=orthogonalEdgeStyle;rounded=0;orthogonalLoop=1;jettySize=auto;html=1;entryX=0.5;entryY=1;entryDx=0;entryDy=0;" parent="WIyWlLk6GJQsqaUBKTNV-1" source="6k4LD1PUbO5Gw9Kn8AXm-39" target="6k4LD1PUbO5Gw9Kn8AXm-10" edge="1">
          <mxGeometry relative="1" as="geometry">
            <mxPoint x="596.5" y="114" as="targetPoint" />
          </mxGeometry>
        </mxCell>
        <mxCell id="6k4LD1PUbO5Gw9Kn8AXm-39" value="Update Cache(Memory &amp;amp; DB)" style="rounded=1;whiteSpace=wrap;html=1;" parent="WIyWlLk6GJQsqaUBKTNV-1" vertex="1">
          <mxGeometry x="175" y="468.5" width="120" height="50" as="geometry" />
        </mxCell>
        <mxCell id="6k4LD1PUbO5Gw9Kn8AXm-41" value="" style="rounded=0;html=1;jettySize=auto;orthogonalLoop=1;fontSize=11;endArrow=block;endFill=0;endSize=8;strokeWidth=1;shadow=0;labelBackgroundColor=none;edgeStyle=orthogonalEdgeStyle;exitX=0.5;exitY=1;exitDx=0;exitDy=0;entryX=0.5;entryY=0;entryDx=0;entryDy=0;" parent="WIyWlLk6GJQsqaUBKTNV-1" source="WIyWlLk6GJQsqaUBKTNV-12" target="6k4LD1PUbO5Gw9Kn8AXm-39" edge="1">
          <mxGeometry relative="1" as="geometry">
            <mxPoint x="360" y="326" as="sourcePoint" />
            <mxPoint x="244.5" y="-25" as="targetPoint" />
          </mxGeometry>
        </mxCell>
        <mxCell id="6k4LD1PUbO5Gw9Kn8AXm-43" value="" style="ellipse;whiteSpace=wrap;html=1;aspect=fixed;" parent="WIyWlLk6GJQsqaUBKTNV-1" vertex="1">
          <mxGeometry x="216.25" y="547" width="37.5" height="37.5" as="geometry" />
        </mxCell>
        <mxCell id="6k4LD1PUbO5Gw9Kn8AXm-44" value="" style="rounded=0;html=1;jettySize=auto;orthogonalLoop=1;fontSize=11;endArrow=block;endFill=0;endSize=8;strokeWidth=1;shadow=0;labelBackgroundColor=none;edgeStyle=orthogonalEdgeStyle;exitX=0.5;exitY=1;exitDx=0;exitDy=0;" parent="WIyWlLk6GJQsqaUBKTNV-1" source="6k4LD1PUbO5Gw9Kn8AXm-39" target="6k4LD1PUbO5Gw9Kn8AXm-43" edge="1">
          <mxGeometry relative="1" as="geometry">
            <mxPoint x="440" y="441" as="sourcePoint" />
            <mxPoint x="440" y="486" as="targetPoint" />
          </mxGeometry>
        </mxCell>
      </root>
    </mxGraphModel>
  </diagram>
  <diagram id="zFVL5Wx3fWlO5GU1_KAq" name="V2-01">
    <mxGraphModel dx="1360" dy="1880" grid="1" gridSize="10" guides="1" tooltips="1" connect="1" arrows="1" fold="1" page="1" pageScale="1" pageWidth="850" pageHeight="1100" math="0" shadow="0">
      <root>
        <mxCell id="Gg6b07joexXQDBYHZa73-0" />
        <mxCell id="Gg6b07joexXQDBYHZa73-1" parent="Gg6b07joexXQDBYHZa73-0" />
        <mxCell id="qNpsoEGlrEc0oBFVcfch-0" value="" style="rounded=0;html=1;jettySize=auto;orthogonalLoop=1;fontSize=11;endArrow=block;endFill=0;endSize=8;strokeWidth=1;shadow=0;labelBackgroundColor=none;edgeStyle=orthogonalEdgeStyle;entryX=0.5;entryY=0;entryDx=0;entryDy=0;" parent="Gg6b07joexXQDBYHZa73-1" target="qNpsoEGlrEc0oBFVcfch-21" edge="1">
          <mxGeometry relative="1" as="geometry">
            <mxPoint x="310.5" y="-31" as="sourcePoint" />
            <mxPoint x="310.5" y="28" as="targetPoint" />
          </mxGeometry>
        </mxCell>
        <mxCell id="qNpsoEGlrEc0oBFVcfch-1" value="Yes" style="rounded=0;html=1;jettySize=auto;orthogonalLoop=1;fontSize=11;endArrow=block;endFill=0;endSize=8;strokeWidth=1;shadow=0;labelBackgroundColor=none;edgeStyle=orthogonalEdgeStyle;entryX=0.5;entryY=0;entryDx=0;entryDy=0;" parent="Gg6b07joexXQDBYHZa73-1" target="qNpsoEGlrEc0oBFVcfch-17" edge="1">
          <mxGeometry y="20" relative="1" as="geometry">
            <mxPoint as="offset" />
            <mxPoint x="311" y="155" as="sourcePoint" />
          </mxGeometry>
        </mxCell>
        <mxCell id="qNpsoEGlrEc0oBFVcfch-2" value="No" style="edgeStyle=orthogonalEdgeStyle;rounded=0;html=1;jettySize=auto;orthogonalLoop=1;fontSize=11;endArrow=block;endFill=0;endSize=8;strokeWidth=1;shadow=0;labelBackgroundColor=none;" parent="Gg6b07joexXQDBYHZa73-1" source="qNpsoEGlrEc0oBFVcfch-3" target="qNpsoEGlrEc0oBFVcfch-5" edge="1">
          <mxGeometry y="10" relative="1" as="geometry">
            <mxPoint as="offset" />
          </mxGeometry>
        </mxCell>
        <mxCell id="qNpsoEGlrEc0oBFVcfch-3" value="Exists In Cache?" style="rhombus;whiteSpace=wrap;html=1;shadow=0;fontFamily=Helvetica;fontSize=12;align=center;strokeWidth=1;spacing=6;spacingTop=-4;" parent="Gg6b07joexXQDBYHZa73-1" vertex="1">
          <mxGeometry x="256" y="90" width="110" height="75" as="geometry" />
        </mxCell>
        <mxCell id="qNpsoEGlrEc0oBFVcfch-4" style="edgeStyle=orthogonalEdgeStyle;rounded=0;orthogonalLoop=1;jettySize=auto;html=1;entryX=0;entryY=0.5;entryDx=0;entryDy=0;" parent="Gg6b07joexXQDBYHZa73-1" source="qNpsoEGlrEc0oBFVcfch-5" target="qNpsoEGlrEc0oBFVcfch-16" edge="1">
          <mxGeometry relative="1" as="geometry">
            <mxPoint x="641" y="110" as="targetPoint" />
          </mxGeometry>
        </mxCell>
        <mxCell id="qNpsoEGlrEc0oBFVcfch-5" value="Generate Tags" style="rounded=1;whiteSpace=wrap;html=1;fontSize=12;glass=0;strokeWidth=1;shadow=0;" parent="Gg6b07joexXQDBYHZa73-1" vertex="1">
          <mxGeometry x="451" y="140" width="120" height="40" as="geometry" />
        </mxCell>
        <mxCell id="qNpsoEGlrEc0oBFVcfch-6" value="No" style="rounded=0;html=1;jettySize=auto;orthogonalLoop=1;fontSize=11;endArrow=block;endFill=0;endSize=8;strokeWidth=1;shadow=0;labelBackgroundColor=none;edgeStyle=orthogonalEdgeStyle;entryX=0;entryY=0.75;entryDx=0;entryDy=0;" parent="Gg6b07joexXQDBYHZa73-1" source="qNpsoEGlrEc0oBFVcfch-8" target="qNpsoEGlrEc0oBFVcfch-21" edge="1">
          <mxGeometry x="0.3333" y="20" relative="1" as="geometry">
            <mxPoint as="offset" />
            <mxPoint x="156" y="415" as="targetPoint" />
            <Array as="points">
              <mxPoint x="161" y="320" />
              <mxPoint x="161" y="53" />
            </Array>
          </mxGeometry>
        </mxCell>
        <mxCell id="qNpsoEGlrEc0oBFVcfch-7" value="Yes" style="edgeStyle=orthogonalEdgeStyle;rounded=0;html=1;jettySize=auto;orthogonalLoop=1;fontSize=11;endArrow=block;endFill=0;endSize=8;strokeWidth=1;shadow=0;labelBackgroundColor=none;entryX=0.5;entryY=0;entryDx=0;entryDy=0;" parent="Gg6b07joexXQDBYHZa73-1" target="qNpsoEGlrEc0oBFVcfch-27" edge="1">
          <mxGeometry y="10" relative="1" as="geometry">
            <mxPoint as="offset" />
            <mxPoint x="311" y="346" as="sourcePoint" />
            <mxPoint x="311" y="386" as="targetPoint" />
          </mxGeometry>
        </mxCell>
        <mxCell id="qNpsoEGlrEc0oBFVcfch-8" value="Event Trigger?" style="rhombus;whiteSpace=wrap;html=1;shadow=0;fontFamily=Helvetica;fontSize=12;align=center;strokeWidth=1;spacing=6;spacingTop=-4;" parent="Gg6b07joexXQDBYHZa73-1" vertex="1">
          <mxGeometry x="261" y="280" width="100" height="80" as="geometry" />
        </mxCell>
        <mxCell id="qNpsoEGlrEc0oBFVcfch-11" style="edgeStyle=orthogonalEdgeStyle;rounded=0;orthogonalLoop=1;jettySize=auto;html=1;entryX=-0.008;entryY=0.154;entryDx=0;entryDy=0;exitX=1;exitY=0.25;exitDx=0;exitDy=0;entryPerimeter=0;" parent="Gg6b07joexXQDBYHZa73-1" source="qNpsoEGlrEc0oBFVcfch-21" target="qNpsoEGlrEc0oBFVcfch-13" edge="1">
          <mxGeometry relative="1" as="geometry">
            <mxPoint x="356" y="63" as="sourcePoint" />
            <mxPoint x="490" y="78" as="targetPoint" />
          </mxGeometry>
        </mxCell>
        <mxCell id="qNpsoEGlrEc0oBFVcfch-12" style="edgeStyle=orthogonalEdgeStyle;rounded=0;orthogonalLoop=1;jettySize=auto;html=1;entryX=1;entryY=0.75;entryDx=0;entryDy=0;exitX=0;exitY=0.75;exitDx=0;exitDy=0;" parent="Gg6b07joexXQDBYHZa73-1" source="qNpsoEGlrEc0oBFVcfch-13" target="qNpsoEGlrEc0oBFVcfch-21" edge="1">
          <mxGeometry relative="1" as="geometry" />
        </mxCell>
        <mxCell id="qNpsoEGlrEc0oBFVcfch-13" value="IV3" style="label;whiteSpace=wrap;html=1;image=img/clipart/Gear_128x128.png" parent="Gg6b07joexXQDBYHZa73-1" vertex="1">
          <mxGeometry x="511" y="8" width="126" height="65" as="geometry" />
        </mxCell>
        <mxCell id="qNpsoEGlrEc0oBFVcfch-14" value="Startup" style="ellipse;whiteSpace=wrap;html=1;aspect=fixed;" parent="Gg6b07joexXQDBYHZa73-1" vertex="1">
          <mxGeometry x="286" y="-160" width="50" height="50" as="geometry" />
        </mxCell>
        <mxCell id="qNpsoEGlrEc0oBFVcfch-15" style="edgeStyle=orthogonalEdgeStyle;rounded=0;orthogonalLoop=1;jettySize=auto;html=1;entryX=1;entryY=0.75;entryDx=0;entryDy=0;exitX=0.5;exitY=0;exitDx=0;exitDy=0;" parent="Gg6b07joexXQDBYHZa73-1" source="qNpsoEGlrEc0oBFVcfch-16" target="qNpsoEGlrEc0oBFVcfch-24" edge="1">
          <mxGeometry relative="1" as="geometry" />
        </mxCell>
        <mxCell id="qNpsoEGlrEc0oBFVcfch-16" value="DB" style="shape=cylinder;whiteSpace=wrap;html=1;boundedLbl=1;backgroundOutline=1;" parent="Gg6b07joexXQDBYHZa73-1" vertex="1">
          <mxGeometry x="660" y="150" width="90" height="120" as="geometry" />
        </mxCell>
        <mxCell id="qNpsoEGlrEc0oBFVcfch-17" value="Check Events&lt;br&gt;(xx Kick off/Sc/Ht/Ft/Et/Finish)" style="rounded=1;whiteSpace=wrap;html=1;" parent="Gg6b07joexXQDBYHZa73-1" vertex="1">
          <mxGeometry x="251" y="190" width="120" height="60" as="geometry" />
        </mxCell>
        <mxCell id="qNpsoEGlrEc0oBFVcfch-18" value="Yes" style="edgeStyle=orthogonalEdgeStyle;rounded=0;html=1;jettySize=auto;orthogonalLoop=1;fontSize=11;endArrow=block;endFill=0;endSize=8;strokeWidth=1;shadow=0;labelBackgroundColor=none;exitX=0.5;exitY=1;exitDx=0;exitDy=0;entryX=0.5;entryY=0;entryDx=0;entryDy=0;" parent="Gg6b07joexXQDBYHZa73-1" source="qNpsoEGlrEc0oBFVcfch-17" target="qNpsoEGlrEc0oBFVcfch-8" edge="1">
          <mxGeometry y="10" relative="1" as="geometry">
            <mxPoint as="offset" />
            <mxPoint x="356" y="415" as="sourcePoint" />
            <mxPoint x="296" y="385" as="targetPoint" />
          </mxGeometry>
        </mxCell>
        <mxCell id="qNpsoEGlrEc0oBFVcfch-21" value="Get Match Data" style="rounded=1;whiteSpace=wrap;html=1;" parent="Gg6b07joexXQDBYHZa73-1" vertex="1">
          <mxGeometry x="251" y="8" width="120" height="60" as="geometry" />
        </mxCell>
        <mxCell id="qNpsoEGlrEc0oBFVcfch-22" value="" style="rounded=0;html=1;jettySize=auto;orthogonalLoop=1;fontSize=11;endArrow=block;endFill=0;endSize=8;strokeWidth=1;shadow=0;labelBackgroundColor=none;edgeStyle=orthogonalEdgeStyle;entryX=0.5;entryY=0;entryDx=0;entryDy=0;" parent="Gg6b07joexXQDBYHZa73-1" target="qNpsoEGlrEc0oBFVcfch-24" edge="1">
          <mxGeometry relative="1" as="geometry">
            <mxPoint x="310.5" y="-110" as="sourcePoint" />
            <mxPoint x="310.5" y="-51" as="targetPoint" />
          </mxGeometry>
        </mxCell>
        <mxCell id="qNpsoEGlrEc0oBFVcfch-23" style="edgeStyle=orthogonalEdgeStyle;rounded=0;orthogonalLoop=1;jettySize=auto;html=1;entryX=0.85;entryY=0.05;entryDx=0;entryDy=0;entryPerimeter=0;" parent="Gg6b07joexXQDBYHZa73-1" source="qNpsoEGlrEc0oBFVcfch-24" target="qNpsoEGlrEc0oBFVcfch-16" edge="1">
          <mxGeometry relative="1" as="geometry">
            <mxPoint x="667" y="39" as="targetPoint" />
          </mxGeometry>
        </mxCell>
        <mxCell id="qNpsoEGlrEc0oBFVcfch-24" value="Load Match Cache" style="rounded=1;whiteSpace=wrap;html=1;" parent="Gg6b07joexXQDBYHZa73-1" vertex="1">
          <mxGeometry x="251" y="-81" width="120" height="60" as="geometry" />
        </mxCell>
        <mxCell id="qNpsoEGlrEc0oBFVcfch-25" value="" style="rounded=0;html=1;jettySize=auto;orthogonalLoop=1;fontSize=11;endArrow=block;endFill=0;endSize=8;strokeWidth=1;shadow=0;labelBackgroundColor=none;edgeStyle=orthogonalEdgeStyle;exitX=0.5;exitY=1;exitDx=0;exitDy=0;entryX=0.5;entryY=0;entryDx=0;entryDy=0;" parent="Gg6b07joexXQDBYHZa73-1" source="qNpsoEGlrEc0oBFVcfch-21" target="qNpsoEGlrEc0oBFVcfch-3" edge="1">
          <mxGeometry relative="1" as="geometry">
            <mxPoint x="320.5" y="-42" as="sourcePoint" />
            <mxPoint x="320.5" y="17" as="targetPoint" />
          </mxGeometry>
        </mxCell>
        <mxCell id="qNpsoEGlrEc0oBFVcfch-26" style="edgeStyle=orthogonalEdgeStyle;rounded=0;orthogonalLoop=1;jettySize=auto;html=1;entryX=0.5;entryY=1;entryDx=0;entryDy=0;" parent="Gg6b07joexXQDBYHZa73-1" source="qNpsoEGlrEc0oBFVcfch-27" target="qNpsoEGlrEc0oBFVcfch-16" edge="1">
          <mxGeometry relative="1" as="geometry">
            <mxPoint x="672.5" y="104" as="targetPoint" />
          </mxGeometry>
        </mxCell>
        <mxCell id="qNpsoEGlrEc0oBFVcfch-27" value="Update Tag To Pending Send" style="rounded=1;whiteSpace=wrap;html=1;" parent="Gg6b07joexXQDBYHZa73-1" vertex="1">
          <mxGeometry x="251" y="392.5" width="120" height="50" as="geometry" />
        </mxCell>
        <mxCell id="qNpsoEGlrEc0oBFVcfch-30" value="" style="rounded=0;html=1;jettySize=auto;orthogonalLoop=1;fontSize=11;endArrow=block;endFill=0;endSize=8;strokeWidth=1;shadow=0;labelBackgroundColor=none;edgeStyle=orthogonalEdgeStyle;exitX=0.5;exitY=1;exitDx=0;exitDy=0;entryX=-0.008;entryY=0.133;entryDx=0;entryDy=0;entryPerimeter=0;" parent="Gg6b07joexXQDBYHZa73-1" source="qNpsoEGlrEc0oBFVcfch-27" target="qNpsoEGlrEc0oBFVcfch-21" edge="1">
          <mxGeometry relative="1" as="geometry">
            <mxPoint x="516" y="365" as="sourcePoint" />
            <mxPoint x="101" y="-50" as="targetPoint" />
            <Array as="points">
              <mxPoint x="311" y="480" />
              <mxPoint x="121" y="480" />
              <mxPoint x="121" y="16" />
            </Array>
          </mxGeometry>
        </mxCell>
      </root>
    </mxGraphModel>
  </diagram>
  <diagram id="M7y8lmLdoKVoqIFH_eeD" name="V2-02">
    <mxGraphModel dx="1360" dy="1880" grid="1" gridSize="10" guides="1" tooltips="1" connect="1" arrows="1" fold="1" page="1" pageScale="1" pageWidth="850" pageHeight="1100" math="0" shadow="0">
      <root>
        <mxCell id="gfVQsOT7YLgto9xU0WHH-0" />
        <mxCell id="gfVQsOT7YLgto9xU0WHH-1" parent="gfVQsOT7YLgto9xU0WHH-0" />
        <mxCell id="UYJM0emweWq699UMywA4-0" value="" style="rounded=0;html=1;jettySize=auto;orthogonalLoop=1;fontSize=11;endArrow=block;endFill=0;endSize=8;strokeWidth=1;shadow=0;labelBackgroundColor=none;edgeStyle=orthogonalEdgeStyle;entryX=0.5;entryY=0;entryDx=0;entryDy=0;" parent="gfVQsOT7YLgto9xU0WHH-1" target="UYJM0emweWq699UMywA4-18" edge="1">
          <mxGeometry relative="1" as="geometry">
            <mxPoint x="399.5" y="82" as="sourcePoint" />
            <mxPoint x="399.5" y="141" as="targetPoint" />
          </mxGeometry>
        </mxCell>
        <mxCell id="UYJM0emweWq699UMywA4-1" value="Yes" style="rounded=0;html=1;jettySize=auto;orthogonalLoop=1;fontSize=11;endArrow=block;endFill=0;endSize=8;strokeWidth=1;shadow=0;labelBackgroundColor=none;edgeStyle=orthogonalEdgeStyle;entryX=0.5;entryY=0;entryDx=0;entryDy=0;exitX=0.5;exitY=1;exitDx=0;exitDy=0;" parent="gfVQsOT7YLgto9xU0WHH-1" source="wy965x564PRo7KeHWa_R-1" target="UYJM0emweWq699UMywA4-15" edge="1">
          <mxGeometry y="20" relative="1" as="geometry">
            <mxPoint as="offset" />
            <mxPoint x="400" y="268" as="sourcePoint" />
          </mxGeometry>
        </mxCell>
        <mxCell id="UYJM0emweWq699UMywA4-6" value="No" style="rounded=0;html=1;jettySize=auto;orthogonalLoop=1;fontSize=11;endArrow=block;endFill=0;endSize=8;strokeWidth=1;shadow=0;labelBackgroundColor=none;edgeStyle=orthogonalEdgeStyle;entryX=1;entryY=0.5;entryDx=0;entryDy=0;" parent="gfVQsOT7YLgto9xU0WHH-1" source="UYJM0emweWq699UMywA4-8" target="hRwCWxAcTZvykBa1zVbb-3" edge="1">
          <mxGeometry x="0.3333" y="20" relative="1" as="geometry">
            <mxPoint as="offset" />
            <mxPoint x="645" y="437.5" as="targetPoint" />
          </mxGeometry>
        </mxCell>
        <mxCell id="UYJM0emweWq699UMywA4-7" value="Yes" style="edgeStyle=orthogonalEdgeStyle;rounded=0;html=1;jettySize=auto;orthogonalLoop=1;fontSize=11;endArrow=block;endFill=0;endSize=8;strokeWidth=1;shadow=0;labelBackgroundColor=none;entryX=0.5;entryY=0;entryDx=0;entryDy=0;" parent="gfVQsOT7YLgto9xU0WHH-1" target="UYJM0emweWq699UMywA4-24" edge="1">
          <mxGeometry y="10" relative="1" as="geometry">
            <mxPoint as="offset" />
            <mxPoint x="400" y="459" as="sourcePoint" />
            <mxPoint x="400" y="499" as="targetPoint" />
          </mxGeometry>
        </mxCell>
        <mxCell id="UYJM0emweWq699UMywA4-8" value="Send successfully?" style="rhombus;whiteSpace=wrap;html=1;shadow=0;fontFamily=Helvetica;fontSize=12;align=center;strokeWidth=1;spacing=6;spacingTop=-4;" parent="gfVQsOT7YLgto9xU0WHH-1" vertex="1">
          <mxGeometry x="350" y="393" width="100" height="80" as="geometry" />
        </mxCell>
        <mxCell id="UYJM0emweWq699UMywA4-12" value="Startup" style="ellipse;whiteSpace=wrap;html=1;aspect=fixed;" parent="gfVQsOT7YLgto9xU0WHH-1" vertex="1">
          <mxGeometry x="375" y="-47" width="50" height="50" as="geometry" />
        </mxCell>
        <mxCell id="UYJM0emweWq699UMywA4-13" style="edgeStyle=orthogonalEdgeStyle;rounded=0;orthogonalLoop=1;jettySize=auto;html=1;entryX=1;entryY=0.75;entryDx=0;entryDy=0;exitX=0.5;exitY=0;exitDx=0;exitDy=0;" parent="gfVQsOT7YLgto9xU0WHH-1" source="UYJM0emweWq699UMywA4-14" target="UYJM0emweWq699UMywA4-21" edge="1">
          <mxGeometry relative="1" as="geometry" />
        </mxCell>
        <mxCell id="UYJM0emweWq699UMywA4-14" value="DB" style="shape=cylinder;whiteSpace=wrap;html=1;boundedLbl=1;backgroundOutline=1;" parent="gfVQsOT7YLgto9xU0WHH-1" vertex="1">
          <mxGeometry x="640" y="209" width="90" height="120" as="geometry" />
        </mxCell>
        <mxCell id="hRwCWxAcTZvykBa1zVbb-1" style="edgeStyle=orthogonalEdgeStyle;rounded=0;orthogonalLoop=1;jettySize=auto;html=1;entryX=1;entryY=0.25;entryDx=0;entryDy=0;exitX=0;exitY=0.25;exitDx=0;exitDy=0;" parent="gfVQsOT7YLgto9xU0WHH-1" source="UYJM0emweWq699UMywA4-15" target="hRwCWxAcTZvykBa1zVbb-0" edge="1">
          <mxGeometry relative="1" as="geometry" />
        </mxCell>
        <mxCell id="UYJM0emweWq699UMywA4-15" value="Push Information" style="rounded=1;whiteSpace=wrap;html=1;" parent="gfVQsOT7YLgto9xU0WHH-1" vertex="1">
          <mxGeometry x="340" y="303" width="120" height="60" as="geometry" />
        </mxCell>
        <mxCell id="UYJM0emweWq699UMywA4-16" value="Yes" style="edgeStyle=orthogonalEdgeStyle;rounded=0;html=1;jettySize=auto;orthogonalLoop=1;fontSize=11;endArrow=block;endFill=0;endSize=8;strokeWidth=1;shadow=0;labelBackgroundColor=none;exitX=0.5;exitY=1;exitDx=0;exitDy=0;entryX=0.5;entryY=0;entryDx=0;entryDy=0;" parent="gfVQsOT7YLgto9xU0WHH-1" source="UYJM0emweWq699UMywA4-15" target="UYJM0emweWq699UMywA4-8" edge="1">
          <mxGeometry y="10" relative="1" as="geometry">
            <mxPoint as="offset" />
            <mxPoint x="445" y="528" as="sourcePoint" />
            <mxPoint x="385" y="498" as="targetPoint" />
          </mxGeometry>
        </mxCell>
        <mxCell id="UYJM0emweWq699UMywA4-18" value="Start Db transaction" style="rounded=1;whiteSpace=wrap;html=1;" parent="gfVQsOT7YLgto9xU0WHH-1" vertex="1">
          <mxGeometry x="340" y="121" width="120" height="60" as="geometry" />
        </mxCell>
        <mxCell id="UYJM0emweWq699UMywA4-19" value="" style="rounded=0;html=1;jettySize=auto;orthogonalLoop=1;fontSize=11;endArrow=block;endFill=0;endSize=8;strokeWidth=1;shadow=0;labelBackgroundColor=none;edgeStyle=orthogonalEdgeStyle;entryX=0.5;entryY=0;entryDx=0;entryDy=0;" parent="gfVQsOT7YLgto9xU0WHH-1" target="UYJM0emweWq699UMywA4-21" edge="1">
          <mxGeometry relative="1" as="geometry">
            <mxPoint x="399.5" y="3" as="sourcePoint" />
            <mxPoint x="399.5" y="62" as="targetPoint" />
          </mxGeometry>
        </mxCell>
        <mxCell id="UYJM0emweWq699UMywA4-20" style="edgeStyle=orthogonalEdgeStyle;rounded=0;orthogonalLoop=1;jettySize=auto;html=1;entryX=0.85;entryY=0.05;entryDx=0;entryDy=0;entryPerimeter=0;" parent="gfVQsOT7YLgto9xU0WHH-1" source="UYJM0emweWq699UMywA4-21" target="UYJM0emweWq699UMywA4-14" edge="1">
          <mxGeometry relative="1" as="geometry">
            <mxPoint x="756" y="152" as="targetPoint" />
          </mxGeometry>
        </mxCell>
        <mxCell id="UYJM0emweWq699UMywA4-21" value="Get Tags waiting to be send" style="rounded=1;whiteSpace=wrap;html=1;" parent="gfVQsOT7YLgto9xU0WHH-1" vertex="1">
          <mxGeometry x="340" y="32" width="120" height="60" as="geometry" />
        </mxCell>
        <mxCell id="UYJM0emweWq699UMywA4-22" value="" style="rounded=0;html=1;jettySize=auto;orthogonalLoop=1;fontSize=11;endArrow=block;endFill=0;endSize=8;strokeWidth=1;shadow=0;labelBackgroundColor=none;edgeStyle=orthogonalEdgeStyle;exitX=0.5;exitY=1;exitDx=0;exitDy=0;entryX=0.5;entryY=0;entryDx=0;entryDy=0;" parent="gfVQsOT7YLgto9xU0WHH-1" source="UYJM0emweWq699UMywA4-18" target="wy965x564PRo7KeHWa_R-1" edge="1">
          <mxGeometry relative="1" as="geometry">
            <mxPoint x="409.5" y="71" as="sourcePoint" />
            <mxPoint x="400" y="203" as="targetPoint" />
          </mxGeometry>
        </mxCell>
        <mxCell id="hRwCWxAcTZvykBa1zVbb-6" style="edgeStyle=orthogonalEdgeStyle;rounded=0;orthogonalLoop=1;jettySize=auto;html=1;entryX=0.85;entryY=0.95;entryDx=0;entryDy=0;entryPerimeter=0;" parent="gfVQsOT7YLgto9xU0WHH-1" source="UYJM0emweWq699UMywA4-24" target="UYJM0emweWq699UMywA4-14" edge="1">
          <mxGeometry relative="1" as="geometry" />
        </mxCell>
        <mxCell id="UYJM0emweWq699UMywA4-24" value="Commit transaction" style="rounded=1;whiteSpace=wrap;html=1;" parent="gfVQsOT7YLgto9xU0WHH-1" vertex="1">
          <mxGeometry x="340" y="505.5" width="120" height="50" as="geometry" />
        </mxCell>
        <mxCell id="UYJM0emweWq699UMywA4-26" value="" style="rounded=0;html=1;jettySize=auto;orthogonalLoop=1;fontSize=11;endArrow=block;endFill=0;endSize=8;strokeWidth=1;shadow=0;labelBackgroundColor=none;edgeStyle=orthogonalEdgeStyle;exitX=0.5;exitY=1;exitDx=0;exitDy=0;entryX=0;entryY=0.25;entryDx=0;entryDy=0;" parent="gfVQsOT7YLgto9xU0WHH-1" source="UYJM0emweWq699UMywA4-24" target="UYJM0emweWq699UMywA4-21" edge="1">
          <mxGeometry relative="1" as="geometry">
            <mxPoint x="605" y="478" as="sourcePoint" />
            <mxPoint x="400" y="584" as="targetPoint" />
            <Array as="points">
              <mxPoint x="400" y="590" />
              <mxPoint x="70" y="590" />
              <mxPoint x="70" y="47" />
            </Array>
          </mxGeometry>
        </mxCell>
        <mxCell id="wy965x564PRo7KeHWa_R-2" style="edgeStyle=orthogonalEdgeStyle;rounded=0;orthogonalLoop=1;jettySize=auto;html=1;" parent="gfVQsOT7YLgto9xU0WHH-1" source="wy965x564PRo7KeHWa_R-1" target="UYJM0emweWq699UMywA4-14" edge="1">
          <mxGeometry relative="1" as="geometry" />
        </mxCell>
        <mxCell id="wy965x564PRo7KeHWa_R-1" value="Lock Row&lt;br&gt;(Update Tag to Sent OK)" style="rounded=1;whiteSpace=wrap;html=1;" parent="gfVQsOT7YLgto9xU0WHH-1" vertex="1">
          <mxGeometry x="340" y="209" width="120" height="60" as="geometry" />
        </mxCell>
        <mxCell id="hRwCWxAcTZvykBa1zVbb-2" style="edgeStyle=orthogonalEdgeStyle;rounded=0;orthogonalLoop=1;jettySize=auto;html=1;entryX=0;entryY=0.75;entryDx=0;entryDy=0;exitX=1;exitY=0.75;exitDx=0;exitDy=0;" parent="gfVQsOT7YLgto9xU0WHH-1" source="hRwCWxAcTZvykBa1zVbb-0" target="UYJM0emweWq699UMywA4-15" edge="1">
          <mxGeometry relative="1" as="geometry" />
        </mxCell>
        <mxCell id="hRwCWxAcTZvykBa1zVbb-0" value="CAP.NFN" style="label;whiteSpace=wrap;html=1;image=img/clipart/Gear_128x128.png" parent="gfVQsOT7YLgto9xU0WHH-1" vertex="1">
          <mxGeometry x="170" y="303" width="120" height="60" as="geometry" />
        </mxCell>
        <mxCell id="hRwCWxAcTZvykBa1zVbb-3" value="Rollback transaction&lt;br&gt;(Release Lock, Tag reset to pending)" style="rounded=1;whiteSpace=wrap;html=1;" parent="gfVQsOT7YLgto9xU0WHH-1" vertex="1">
          <mxGeometry x="160" y="420" width="120" height="60" as="geometry" />
        </mxCell>
        <mxCell id="hRwCWxAcTZvykBa1zVbb-11" value="" style="rounded=0;html=1;jettySize=auto;orthogonalLoop=1;fontSize=11;endArrow=block;endFill=0;endSize=8;strokeWidth=1;shadow=0;labelBackgroundColor=none;edgeStyle=orthogonalEdgeStyle;exitX=0;exitY=0.5;exitDx=0;exitDy=0;entryX=0;entryY=0.75;entryDx=0;entryDy=0;" parent="gfVQsOT7YLgto9xU0WHH-1" source="hRwCWxAcTZvykBa1zVbb-3" target="UYJM0emweWq699UMywA4-21" edge="1">
          <mxGeometry relative="1" as="geometry">
            <mxPoint x="410" y="565.5" as="sourcePoint" />
            <mxPoint x="350" y="72" as="targetPoint" />
            <Array as="points">
              <mxPoint x="110" y="450" />
              <mxPoint x="110" y="77" />
            </Array>
          </mxGeometry>
        </mxCell>
      </root>
    </mxGraphModel>
  </diagram>
  <diagram id="neBUixCtu_hrLGzwuced" name="Match Refresh">
    <mxGraphModel dx="1360" dy="780" grid="1" gridSize="10" guides="1" tooltips="1" connect="1" arrows="1" fold="1" page="1" pageScale="1" pageWidth="850" pageHeight="1100" math="0" shadow="0">
      <root>
        <mxCell id="MSXAlveWyUb_gbDv8mmJ-0" />
        <mxCell id="MSXAlveWyUb_gbDv8mmJ-1" parent="MSXAlveWyUb_gbDv8mmJ-0" />
        <mxCell id="hCLdFFiTCTO7iaYBmdS--1" value="DB" style="shape=cylinder;whiteSpace=wrap;html=1;boundedLbl=1;backgroundOutline=1;" vertex="1" parent="MSXAlveWyUb_gbDv8mmJ-1">
          <mxGeometry x="580" y="130" width="60" height="80" as="geometry" />
        </mxCell>
        <mxCell id="1R-FOjxpQe_7E5hH0tpF-0" value="IV3" style="label;whiteSpace=wrap;html=1;image=img/clipart/Gear_128x128.png" vertex="1" parent="MSXAlveWyUb_gbDv8mmJ-1">
          <mxGeometry x="40" y="330" width="126" height="60" as="geometry" />
        </mxCell>
        <mxCell id="1R-FOjxpQe_7E5hH0tpF-2" style="edgeStyle=orthogonalEdgeStyle;rounded=0;orthogonalLoop=1;jettySize=auto;html=1;entryX=0.5;entryY=0;entryDx=0;entryDy=0;" edge="1" parent="MSXAlveWyUb_gbDv8mmJ-1" source="1R-FOjxpQe_7E5hH0tpF-1" target="1R-FOjxpQe_7E5hH0tpF-9">
          <mxGeometry relative="1" as="geometry">
            <mxPoint x="340" y="110" as="targetPoint" />
          </mxGeometry>
        </mxCell>
        <mxCell id="1R-FOjxpQe_7E5hH0tpF-1" value="" style="ellipse;whiteSpace=wrap;html=1;aspect=fixed;" vertex="1" parent="MSXAlveWyUb_gbDv8mmJ-1">
          <mxGeometry x="260" y="30" width="40" height="40" as="geometry" />
        </mxCell>
        <mxCell id="1R-FOjxpQe_7E5hH0tpF-31" style="edgeStyle=orthogonalEdgeStyle;rounded=0;orthogonalLoop=1;jettySize=auto;html=1;entryX=0.5;entryY=0;entryDx=0;entryDy=0;" edge="1" parent="MSXAlveWyUb_gbDv8mmJ-1" source="1R-FOjxpQe_7E5hH0tpF-3" target="1R-FOjxpQe_7E5hH0tpF-32">
          <mxGeometry relative="1" as="geometry">
            <mxPoint x="330" y="420" as="targetPoint" />
          </mxGeometry>
        </mxCell>
        <mxCell id="1R-FOjxpQe_7E5hH0tpF-3" value="Get Match from IV3" style="rounded=0;whiteSpace=wrap;html=1;" vertex="1" parent="MSXAlveWyUb_gbDv8mmJ-1">
          <mxGeometry x="270" y="330" width="120" height="60" as="geometry" />
        </mxCell>
        <mxCell id="1R-FOjxpQe_7E5hH0tpF-15" style="edgeStyle=orthogonalEdgeStyle;rounded=0;orthogonalLoop=1;jettySize=auto;html=1;entryX=0.5;entryY=0;entryDx=0;entryDy=0;" edge="1" parent="MSXAlveWyUb_gbDv8mmJ-1" source="1R-FOjxpQe_7E5hH0tpF-9" target="1R-FOjxpQe_7E5hH0tpF-14">
          <mxGeometry relative="1" as="geometry" />
        </mxCell>
        <mxCell id="1R-FOjxpQe_7E5hH0tpF-9" value="Load Match from DB" style="rounded=0;whiteSpace=wrap;html=1;" vertex="1" parent="MSXAlveWyUb_gbDv8mmJ-1">
          <mxGeometry x="270" y="130" width="120" height="60" as="geometry" />
        </mxCell>
        <mxCell id="1R-FOjxpQe_7E5hH0tpF-30" style="edgeStyle=orthogonalEdgeStyle;rounded=0;orthogonalLoop=1;jettySize=auto;html=1;entryX=0.5;entryY=0;entryDx=0;entryDy=0;" edge="1" parent="MSXAlveWyUb_gbDv8mmJ-1" source="1R-FOjxpQe_7E5hH0tpF-14" target="1R-FOjxpQe_7E5hH0tpF-3">
          <mxGeometry relative="1" as="geometry" />
        </mxCell>
        <mxCell id="1R-FOjxpQe_7E5hH0tpF-14" value="Cache in memory" style="rounded=0;whiteSpace=wrap;html=1;" vertex="1" parent="MSXAlveWyUb_gbDv8mmJ-1">
          <mxGeometry x="270" y="230" width="120" height="60" as="geometry" />
        </mxCell>
        <mxCell id="1R-FOjxpQe_7E5hH0tpF-16" value="Stored Matches" style="ellipse;whiteSpace=wrap;html=1;" vertex="1" parent="MSXAlveWyUb_gbDv8mmJ-1">
          <mxGeometry x="500" y="250" width="120" height="80" as="geometry" />
        </mxCell>
        <mxCell id="1R-FOjxpQe_7E5hH0tpF-21" value="return" style="html=1;verticalAlign=bottom;endArrow=open;dashed=1;endSize=8;exitX=1;exitY=0.75;exitDx=0;exitDy=0;entryX=0;entryY=0.75;entryDx=0;entryDy=0;" edge="1" parent="MSXAlveWyUb_gbDv8mmJ-1" source="1R-FOjxpQe_7E5hH0tpF-0" target="1R-FOjxpQe_7E5hH0tpF-3">
          <mxGeometry relative="1" as="geometry">
            <mxPoint x="290" y="470" as="sourcePoint" />
            <mxPoint x="210" y="470" as="targetPoint" />
          </mxGeometry>
        </mxCell>
        <mxCell id="1R-FOjxpQe_7E5hH0tpF-24" value="" style="endArrow=block;dashed=1;endFill=0;endSize=12;html=1;entryX=1;entryY=0.25;entryDx=0;entryDy=0;exitX=0;exitY=0.25;exitDx=0;exitDy=0;" edge="1" parent="MSXAlveWyUb_gbDv8mmJ-1" source="1R-FOjxpQe_7E5hH0tpF-3" target="1R-FOjxpQe_7E5hH0tpF-0">
          <mxGeometry width="160" relative="1" as="geometry">
            <mxPoint x="210" y="560" as="sourcePoint" />
            <mxPoint x="370" y="560" as="targetPoint" />
          </mxGeometry>
        </mxCell>
        <mxCell id="1R-FOjxpQe_7E5hH0tpF-25" value="" style="endArrow=block;dashed=1;endFill=0;endSize=12;html=1;exitX=1;exitY=0.25;exitDx=0;exitDy=0;entryX=0;entryY=0.3;entryDx=0;entryDy=0;" edge="1" parent="MSXAlveWyUb_gbDv8mmJ-1" source="1R-FOjxpQe_7E5hH0tpF-9" target="hCLdFFiTCTO7iaYBmdS--1">
          <mxGeometry width="160" relative="1" as="geometry">
            <mxPoint x="410" y="140" as="sourcePoint" />
            <mxPoint x="570" y="140" as="targetPoint" />
          </mxGeometry>
        </mxCell>
        <mxCell id="1R-FOjxpQe_7E5hH0tpF-26" value="return" style="html=1;verticalAlign=bottom;endArrow=open;dashed=1;endSize=8;exitX=0;exitY=0.7;exitDx=0;exitDy=0;entryX=1;entryY=0.75;entryDx=0;entryDy=0;" edge="1" parent="MSXAlveWyUb_gbDv8mmJ-1" source="hCLdFFiTCTO7iaYBmdS--1" target="1R-FOjxpQe_7E5hH0tpF-9">
          <mxGeometry relative="1" as="geometry">
            <mxPoint x="530" y="180" as="sourcePoint" />
            <mxPoint x="450" y="180" as="targetPoint" />
          </mxGeometry>
        </mxCell>
        <mxCell id="1R-FOjxpQe_7E5hH0tpF-32" value="Cache in memory" style="rounded=0;whiteSpace=wrap;html=1;" vertex="1" parent="MSXAlveWyUb_gbDv8mmJ-1">
          <mxGeometry x="270" y="430" width="120" height="60" as="geometry" />
        </mxCell>
        <mxCell id="1R-FOjxpQe_7E5hH0tpF-33" value="" style="endArrow=block;dashed=1;endFill=0;endSize=12;html=1;exitX=1;exitY=0.25;exitDx=0;exitDy=0;entryX=0;entryY=0;entryDx=0;entryDy=0;" edge="1" parent="MSXAlveWyUb_gbDv8mmJ-1" source="1R-FOjxpQe_7E5hH0tpF-14" target="1R-FOjxpQe_7E5hH0tpF-16">
          <mxGeometry width="160" relative="1" as="geometry">
            <mxPoint x="400" y="155" as="sourcePoint" />
            <mxPoint x="590" y="164" as="targetPoint" />
          </mxGeometry>
        </mxCell>
        <object label="" id="1R-FOjxpQe_7E5hH0tpF-34">
          <mxCell style="curved=1;endArrow=classic;html=1;exitX=1;exitY=0.5;exitDx=0;exitDy=0;" edge="1" parent="MSXAlveWyUb_gbDv8mmJ-1" source="1R-FOjxpQe_7E5hH0tpF-32" target="1R-FOjxpQe_7E5hH0tpF-16">
            <mxGeometry width="50" height="50" relative="1" as="geometry">
              <mxPoint x="440" y="430" as="sourcePoint" />
              <mxPoint x="490" y="380" as="targetPoint" />
            </mxGeometry>
          </mxCell>
        </object>
      </root>
    </mxGraphModel>
  </diagram>
</mxfile>
